<svg width="48" height="48" viewBox="0 0 48 48" fill="none" xmlns="http://www.w3.org/2000/svg">
<rect width="48" height="48" rx="24" fill="#262E38"/>
<path d="M24.6932 16.43L26.6831 20.4614C26.7955 20.6891 27.0128 20.8469 27.2641 20.8834L31.7129 21.53C32.0036 21.5722 32.2451 21.7758 32.3359 22.0552C32.4266 22.3346 32.3508 22.6413 32.1403 22.8463L28.9206 25.9842C28.7385 26.1617 28.656 26.4171 28.6984 26.667L29.4584 31.0981C29.508 31.3876 29.389 31.6801 29.1514 31.8527C28.9138 32.0253 28.5988 32.048 28.3389 31.9114L24.3591 29.8189C24.1342 29.7009 23.8657 29.7009 23.6408 29.8189L19.6611 31.9114C19.4012 32.048 19.0862 32.0253 18.8486 31.8527C18.611 31.6801 18.492 31.3876 18.5416 31.0981L19.3015 26.667C19.3445 26.4167 19.2614 26.1613 19.0793 25.9842L15.8596 22.8463C15.6492 22.6413 15.5734 22.3346 15.6641 22.0552C15.7548 21.7758 15.9963 21.5722 16.287 21.53L20.7359 20.8834C20.9872 20.8469 21.2045 20.6891 21.3169 20.4614L23.3067 16.43C23.5922 15.8567 24.4101 15.8567 24.6932 16.43Z" fill="#FC7614"/>
</svg>
